<?xml version="1.0" encoding="UTF-8"?>
<svg id="Layer_1" data-name="Layer 1" xmlns="http://www.w3.org/2000/svg" viewBox="0 0 261.73359 570.34097">
  <circle cx="130.9501" cy="46.01924" r="46.54521" fill="white"/>
  <path fill="white" d="m124.50539,387.5888v161.83398c-.24345,29.40222-44.01041,29.40222-44.39708,0v-161.83398H22.82175l61.58303-216.25572h-10.02514l-35.80411,123.16548c-9.05126,27.23965-45.88653,16.21204-37.23625-12.88934l40.10058-133.19066c4.61158-15.29544,23.8885-42.30448,57.28657-42.96472h64.44741c32.43565.66024,51.79279,27.89844,57.28656,42.96472l40.1006,133.19066c8.1347,28.95816-28.40842,40.84506-37.23627,12.88934l-35.80411-123.16548h-11.45732l63.01524,216.25572h-58.71875v161.83398c.4583,29.40222-43.13678,29.25897-42.96494,0v-161.83398h-12.88948Z"/>
</svg>